<svg width="1440" height="900" viewBox="0 0 1440 900" fill="none" xmlns="http://www.w3.org/2000/svg">
<g clip-path="url(#clip0_285_25)">
<rect width="1440" height="900" fill="#F8F8F8"/>
<path d="M61 201.199C61 211.184 70.2091 219.277 81.569 219.277C89.6453 219.277 96.6343 215.187 100 209.234C81.569 209.234 72.4272 201.199 72.4272 185C65.6545 187.958 61 194.101 61 201.199Z" fill="#FFA800" fill-opacity="0.7"/>
<path d="M1419.97 128.647L1430.21 120.075C1431.53 118.975 1433.72 119.676 1433.92 121.262L1435.5 133.614L1448.01 139.53C1449.62 140.289 1449.54 142.326 1447.88 142.978L1434.95 148.058L1432.45 160.276C1432.12 161.845 1429.88 162.404 1428.66 161.221L1419.09 152.01L1405.02 153.66C1403.21 153.872 1401.91 152.179 1402.81 150.795L1409.83 140.021L1403.64 128.824C1402.84 127.387 1404.27 125.781 1406.06 126.107L1419.97 128.647Z" fill="#FFA800" fill-opacity="0.5"/>
<path d="M10.653 248.278L27.4735 228.228C29.6325 225.654 34.236 226.367 35.2632 229.435L43.2666 253.333L70.3126 261.18C73.7827 262.187 74.4343 266.232 71.4162 268.027L47.9053 282.008L47.8002 306.889C47.7868 310.084 43.5877 311.872 40.6947 309.913L18.1618 294.66L-8.94818 302.22C-12.4286 303.191 -15.679 300.249 -14.4483 297.242L-4.86467 273.83L-21.5168 253.625C-23.6548 251.031 -21.4679 247.425 -17.8153 247.522L10.653 248.278Z" fill="#FFA800" fill-opacity="0.5"/>
<path d="M1353.04 497.149L1362.13 497.138C1363.29 497.136 1364.13 495.812 1363.54 494.897L1358.96 487.769L1362.9 479.212C1363.4 478.114 1362.47 477.086 1361.32 477.473L1352.36 480.48L1345.71 475.207C1344.85 474.53 1343.44 475.219 1343.32 476.372L1342.36 485.358L1334.31 490.65C1333.27 491.329 1333.33 492.784 1334.41 493.111L1342.78 495.658L1344.45 504.201C1344.66 505.298 1346.11 505.509 1346.9 504.558L1353.04 497.149Z" fill="#FFA800" fill-opacity="0.5"/>
<path d="M1391.91 535.248L1390.18 511.077C1389.96 507.974 1393.89 505.977 1396.84 507.697L1419.79 521.099L1445.51 512.088C1448.81 510.932 1452.17 513.587 1451.2 516.582L1443.63 539.907L1461.25 558.496C1463.51 560.883 1461.65 564.521 1458.1 564.651L1430.48 565.667L1415.66 586.188C1413.76 588.822 1409.25 588.417 1408.03 585.502L1398.52 562.801L1371.75 556.9C1368.31 556.142 1367.38 552.255 1370.17 550.321L1391.91 535.248Z" fill="#FFA800" fill-opacity="0.5"/>
<path d="M1415.24 464.827C1424.62 457.91 1425.84 445.619 1417.97 437.375C1412.38 431.514 1403.69 429.277 1395.77 430.958C1408.54 444.334 1407.32 456.534 1392.1 467.758C1399.57 470.623 1408.57 469.745 1415.24 464.827Z" fill="#FFA800" fill-opacity="0.7"/>
<path d="M87.8867 462.232C85.7879 452.961 76.5717 446 65.5 446C56.7096 446 49.075 450.407 45.2729 456.857C36.1175 457.717 29 464.571 29 472.875C29 481.771 37.1821 489 47.25 489H86.7917C95.1867 489 102 482.98 102 475.562C102 468.467 95.7646 462.716 87.8867 462.232Z" fill="#00509D" fill-opacity="0.4"/>
<path d="M1381.44 224.234C1378.68 212.105 1366.56 203 1352 203C1340.44 203 1330.4 208.766 1325.4 217.203C1313.36 218.328 1304 227.293 1304 238.156C1304 249.793 1314.76 259.25 1328 259.25H1380C1391.04 259.25 1400 251.375 1400 241.672C1400 232.391 1391.8 224.867 1381.44 224.234Z" fill="#00509D" fill-opacity="0.4"/>
</g>
<defs>
<clipPath id="clip0_285_25">
<rect width="1440" height="900" fill="white"/>
</clipPath>
</defs>
</svg>
