<svg width="96" height="96" viewBox="0 0 96 96" fill="none" xmlns="http://www.w3.org/2000/svg">
<path d="M59.9999 42.4V20C59.9999 13.36 54.6399 8 47.9999 8C41.8399 8 36.8399 12.64 36.1599 18.6L59.9999 42.4ZM72.3199 44C70.6799 44 69.2399 45.2 68.9999 46.84C68.7999 48.12 68.5199 49.4 68.1199 50.56L73.1999 55.64C74.3999 53.24 75.2799 50.64 75.7199 47.88C75.9999 45.84 74.3999 44 72.3199 44ZM14.8399 14.24C13.2799 15.8 13.2799 18.32 14.8399 19.88L35.9999 41.08V42.8C35.9999 47.56 38.3999 52.08 42.5199 54.44C45.5199 56.16 48.1599 56.2 50.5999 55.68L57.2399 62.32C54.3999 63.64 51.2399 64.4 47.9999 64.4C37.8399 64.4 28.4799 57.32 26.9999 46.84C26.7599 45.2 25.3199 44 23.6799 44C21.5999 44 19.9999 45.84 20.2799 47.88C22.1199 59.72 32.1199 69.08 43.9999 70.88V80C43.9999 82.2 45.7999 84 47.9999 84C50.1999 84 51.9999 82.2 51.9999 80V70.88C55.6399 70.36 59.0799 69.08 62.1999 67.28L76.1599 81.24C77.7199 82.8 80.2399 82.8 81.7999 81.24C83.3599 79.68 83.3599 77.16 81.7999 75.6L20.4799 14.24C18.9199 12.68 16.3999 12.68 14.8399 14.24Z" fill="white"/>
</svg>
