<svg width="96" height="96" viewBox="0 0 96 96" fill="none" xmlns="http://www.w3.org/2000/svg">
<path d="M83.9999 56.7999V35.6399C83.9999 32.0799 79.6799 30.2799 77.1599 32.7999L67.9999 41.9999V27.9999C67.9999 25.7999 66.1999 23.9999 63.9999 23.9999H41.5599L77.1999 59.6399C79.6799 62.1599 83.9999 60.3599 83.9999 56.7999ZM10.8399 10.2399C9.27992 11.7999 9.27992 14.3199 10.8399 15.8799L18.9199 23.9999H15.9999C13.7999 23.9999 11.9999 25.7999 11.9999 27.9999V67.9999C11.9999 70.1999 13.7999 71.9999 15.9999 71.9999H63.9999C64.8399 71.9999 65.5599 71.6799 66.1999 71.2799L76.1199 81.1999C77.6799 82.7599 80.1999 82.7599 81.7599 81.1999C83.3199 79.6399 83.3199 77.1199 81.7599 75.5599L16.4799 10.2399C14.9199 8.67995 12.3999 8.67995 10.8399 10.2399Z" fill="white"/>
</svg>
