<svg width="96" height="96" viewBox="0 0 96 96" fill="none" xmlns="http://www.w3.org/2000/svg">
<path d="M47.9999 56C54.6399 56 59.9999 50.64 59.9999 44V20C59.9999 13.36 54.6399 8 47.9999 8C41.3599 8 35.9999 13.36 35.9999 20V44C35.9999 50.64 41.3599 56 47.9999 56ZM71.6399 44C69.6799 44 68.0399 45.44 67.7199 47.4C66.0799 56.8 57.8799 64 47.9999 64C38.1199 64 29.9199 56.8 28.2799 47.4C27.9599 45.44 26.3199 44 24.3599 44C21.9199 44 19.9999 46.16 20.3599 48.56C22.3199 60.56 31.9199 69.96 43.9999 71.68V80C43.9999 82.2 45.7999 84 47.9999 84C50.1999 84 51.9999 82.2 51.9999 80V71.68C64.0799 69.96 73.6799 60.56 75.6399 48.56C76.0399 46.16 74.0799 44 71.6399 44Z" fill="white"/>
</svg>
