<svg width="763" height="477" viewBox="0 0 763 477" fill="none" xmlns="http://www.w3.org/2000/svg">
<rect width="763" height="477" rx="16" fill="#DDDDDD"/>
<g clip-path="url(#clip0_371_3888)">
<path d="M382.135 85.0977C296.053 85.0977 226.189 154.961 226.189 241.044C226.189 327.126 296.053 396.989 382.135 396.989C468.217 396.989 538.081 327.126 538.081 241.044C538.081 154.961 468.217 85.0977 382.135 85.0977ZM382.135 131.881C408.022 131.881 428.919 152.778 428.919 178.665C428.919 204.552 408.022 225.449 382.135 225.449C356.248 225.449 335.351 204.552 335.351 178.665C335.351 152.778 356.248 131.881 382.135 131.881ZM382.135 353.325C343.148 353.325 308.684 333.364 288.567 303.11C289.035 272.077 350.946 255.079 382.135 255.079C413.168 255.079 475.235 272.077 475.702 303.11C455.585 333.364 421.121 353.325 382.135 353.325Z" fill="black"/>
</g>
<defs>
<clipPath id="clip0_371_3888">
<rect width="374.27" height="374.27" fill="white" transform="translate(195 32)"/>
</clipPath>
</defs>
</svg>
